<svg xmlns="http://www.w3.org/2000/svg" version="1.1" xmlns:xlink="http://www.w3.org/1999/xlink" xmlns:svgjs="http://svgjs.dev/svgjs" viewBox="0 0 8.394590130552405 9.163435202981724"><g transform="matrix(1,0,0,1,0.7307423309012027,7.284987793955521)"><g><path d=" M 0.685546875 0.031494140625 Q 0.775634765625 0.031494140625 0.869384765625 0.0479736328125 Q 0.963134765625 0.064453125 1.0517578125 0.09814453125 Q 1.140380859375 0.1318359375 1.21875 0.1827392578125 Q 1.297119140625 0.233642578125 1.355712890625 0.3017578125 Q 1.414306640625 0.369873046875 1.4483642578125 0.45556640625 Q 1.482421875 0.541259765625 1.482421875 0.645263671875 Q 1.482421875 0.749267578125 1.44580078125 0.837890625 Q 1.4091796875 0.926513671875 1.34326171875 0.990966796875 Q 1.27734375 1.055419921875 1.185791015625 1.092041015625 Q 1.09423828125 1.128662109375 0.984375 1.128662109375 Q 0.932373046875 1.128662109375 0.876708984375 1.1209716796875 Q 0.821044921875 1.11328125 0.765380859375 1.09716796875 Q 0.709716796875 1.0810546875 0.6558837890625 1.0572509765625 Q 0.60205078125 1.033447265625 0.552978515625 1.00048828125 Q 0.4951171875 1.0576171875 0.4193115234375 1.0894775390625 Q 0.343505859375 1.121337890625 0.25927734375 1.121337890625 Q 0.2138671875 1.121337890625 0.17431640625 1.111083984375 Q 0.134765625 1.100830078125 0.1058349609375 1.081787109375 Q 0.076904296875 1.062744140625 0.0604248046875 1.03564453125 Q 0.0439453125 1.008544921875 0.0439453125 0.9755859375 Q 0.0439453125 0.947021484375 0.0582275390625 0.922119140625 Q 0.072509765625 0.897216796875 0.0985107421875 0.878173828125 Q 0.12451171875 0.859130859375 0.1607666015625 0.84814453125 Q 0.197021484375 0.837158203125 0.240234375 0.837158203125 Q 0.36767578125 0.837158203125 0.5419921875 0.930908203125 Q 0.57421875 0.890625 0.5947265625 0.840087890625 Q 0.617431640625 0.78369140625 0.6302490234375 0.7239990234375 Q 0.64306640625 0.664306640625 0.6529541015625 0.60498046875 Q 0.662841796875 0.545654296875 0.6734619140625 0.4892578125 Q 0.68408203125 0.432861328125 0.7027587890625 0.383056640625 Q 0.721435546875 0.333251953125 0.7518310546875 0.2918701171875 Q 0.7822265625 0.25048828125 0.831298828125 0.22119140625 Q 0.838623046875 0.217529296875 0.844482421875 0.217529296875 Q 0.854736328125 0.217529296875 0.8638916015625 0.224853515625 Q 0.873046875 0.232177734375 0.873046875 0.245361328125 Q 0.873046875 0.2607421875 0.859130859375 0.268798828125 Q 0.8203125 0.29150390625 0.7957763671875 0.3255615234375 Q 0.771240234375 0.359619140625 0.755126953125 0.402099609375 Q 0.739013671875 0.444580078125 0.7294921875 0.49365234375 Q 0.719970703125 0.542724609375 0.711181640625 0.59619140625 Q 0.703857421875 0.64013671875 0.695068359375 0.6881103515625 Q 0.686279296875 0.736083984375 0.673095703125 0.7833251953125 Q 0.659912109375 0.83056640625 0.6397705078125 0.8756103515625 Q 0.61962890625 0.920654296875 0.59033203125 0.958740234375 Q 0.591796875 0.95947265625 0.5921630859375 0.9598388671875 Q 0.592529296875 0.960205078125 0.593994140625 0.9609375 Q 0.68701171875 1.0166015625 0.787353515625 1.045166015625 Q 0.8876953125 1.07373046875 0.983642578125 1.07373046875 Q 1.087646484375 1.07373046875 1.1700439453125 1.039306640625 Q 1.25244140625 1.0048828125 1.3095703125 0.9466552734375 Q 1.36669921875 0.888427734375 1.396728515625 0.810791015625 Q 1.4267578125 0.733154296875 1.4267578125 0.646728515625 Q 1.4267578125 0.558837890625 1.3974609375 0.4830322265625 Q 1.3681640625 0.4072265625 1.3172607421875 0.344970703125 Q 1.266357421875 0.28271484375 1.1964111328125 0.234375 Q 1.12646484375 0.18603515625 1.0455322265625 0.1534423828125 Q 0.964599609375 0.120849609375 0.8756103515625 0.1036376953125 Q 0.78662109375 0.08642578125 0.697265625 0.08642578125 Q 0.5771484375 0.08642578125 0.4779052734375 0.1065673828125 Q 0.378662109375 0.126708984375 0.3072509765625 0.16552734375 Q 0.23583984375 0.204345703125 0.1962890625 0.2607421875 Q 0.15673828125 0.317138671875 0.15673828125 0.388916015625 Q 0.15673828125 0.429931640625 0.1688232421875 0.46142578125 Q 0.180908203125 0.492919921875 0.1995849609375 0.5159912109375 Q 0.21826171875 0.5390625 0.240234375 0.55517578125 Q 0.26220703125 0.5712890625 0.28125 0.5811767578125 Q 0.30029296875 0.591064453125 0.3138427734375 0.595458984375 Q 0.327392578125 0.599853515625 0.32958984375 0.6005859375 Q 0.339111328125 0.602783203125 0.3446044921875 0.6104736328125 Q 0.35009765625 0.6181640625 0.35009765625 0.627685546875 Q 0.35009765625 0.64013671875 0.34130859375 0.646728515625 Q 0.33251953125 0.6533203125 0.322265625 0.6533203125 Q 0.3076171875 0.6533203125 0.28564453125 0.6463623046875 Q 0.263671875 0.639404296875 0.2391357421875 0.6251220703125 Q 0.214599609375 0.61083984375 0.1900634765625 0.5892333984375 Q 0.16552734375 0.567626953125 0.145751953125 0.538330078125 Q 0.1259765625 0.509033203125 0.1138916015625 0.4716796875 Q 0.101806640625 0.434326171875 0.101806640625 0.388916015625 Q 0.101806640625 0.30615234375 0.1439208984375 0.2398681640625 Q 0.18603515625 0.173583984375 0.262939453125 0.12744140625 Q 0.33984375 0.081298828125 0.4471435546875 0.056396484375 Q 0.554443359375 0.031494140625 0.685546875 0.031494140625 M 0.50244140625 0.97265625 Q 0.42626953125 0.932373046875 0.361083984375 0.911865234375 Q 0.2958984375 0.891357421875 0.24169921875 0.891357421875 Q 0.2109375 0.891357421875 0.1849365234375 0.8983154296875 Q 0.158935546875 0.9052734375 0.139892578125 0.9169921875 Q 0.120849609375 0.9287109375 0.10986328125 0.944091796875 Q 0.098876953125 0.95947265625 0.098876953125 0.976318359375 Q 0.098876953125 0.992431640625 0.1087646484375 1.008544921875 Q 0.11865234375 1.024658203125 0.1387939453125 1.037109375 Q 0.158935546875 1.049560546875 0.18896484375 1.0576171875 Q 0.218994140625 1.065673828125 0.25927734375 1.065673828125 Q 0.328125 1.065673828125 0.3907470703125 1.0411376953125 Q 0.453369140625 1.0166015625 0.50244140625 0.97265625 M 1.8984375 1.0283203125 Q 1.880126953125 1.0283203125 1.8662109375 1.025390625 Q 1.855224609375 1.04736328125 1.83984375 1.0660400390625 Q 1.824462890625 1.084716796875 1.8043212890625 1.0986328125 Q 1.7841796875 1.112548828125 1.75927734375 1.12060546875 Q 1.734375 1.128662109375 1.705078125 1.128662109375 Q 1.670654296875 1.128662109375 1.64208984375 1.1165771484375 Q 1.613525390625 1.1044921875 1.59228515625 1.0828857421875 Q 1.571044921875 1.061279296875 1.559326171875 1.0308837890625 Q 1.547607421875 1.00048828125 1.547607421875 0.9638671875 Q 1.547607421875 0.9169921875 1.564453125 0.8822021484375 Q 1.581298828125 0.847412109375 1.603271484375 0.8243408203125 Q 1.625244140625 0.80126953125 1.647216796875 0.7899169921875 Q 1.669189453125 0.778564453125 1.68017578125 0.778564453125 Q 1.692626953125 0.778564453125 1.6988525390625 0.78515625 Q 1.705078125 0.791748046875 1.705078125 0.802734375 Q 1.705078125 0.815185546875 1.6973876953125 0.8214111328125 Q 1.689697265625 0.82763671875 1.677978515625 0.83349609375 Q 1.666259765625 0.83935546875 1.653076171875 0.8499755859375 Q 1.639892578125 0.860595703125 1.6285400390625 0.876708984375 Q 1.6171875 0.892822265625 1.60986328125 0.914794921875 Q 1.6025390625 0.936767578125 1.6025390625 0.9638671875 Q 1.6025390625 0.988037109375 1.60986328125 1.0089111328125 Q 1.6171875 1.02978515625 1.631103515625 1.0447998046875 Q 1.64501953125 1.059814453125 1.6640625 1.0682373046875 Q 1.68310546875 1.07666015625 1.70654296875 1.07666015625 Q 1.748291015625 1.07666015625 1.7757568359375 1.0572509765625 Q 1.80322265625 1.037841796875 1.81787109375 1.0078125 Q 1.774658203125 0.985107421875 1.746826171875 0.943359375 Q 1.718994140625 0.901611328125 1.718994140625 0.849609375 Q 1.718994140625 0.807861328125 1.7391357421875 0.781494140625 Q 1.75927734375 0.755126953125 1.792236328125 0.755126953125 Q 1.81201171875 0.755126953125 1.82958984375 0.7646484375 Q 1.84716796875 0.774169921875 1.8607177734375 0.794677734375 Q 1.874267578125 0.815185546875 1.88232421875 0.847412109375 Q 1.890380859375 0.879638671875 1.890380859375 0.92431640625 Q 1.890380859375 0.94775390625 1.884521484375 0.973388671875 Q 1.888916015625 0.97412109375 1.893310546875 0.97412109375 Q 1.897705078125 0.97412109375 1.90283203125 0.97412109375 Q 1.927734375 0.97412109375 1.947509765625 0.96826171875 Q 1.96728515625 0.96240234375 1.9833984375 0.95068359375 Q 1.99951171875 0.93896484375 2.0123291015625 0.920654296875 Q 2.025146484375 0.90234375 2.036865234375 0.878173828125 Q 2.0390625 0.873779296875 2.04638671875 0.8697509765625 Q 2.0537109375 0.86572265625 2.06103515625 0.86572265625 Q 2.070556640625 0.86572265625 2.0789794921875 0.8734130859375 Q 2.08740234375 0.881103515625 2.08740234375 0.8935546875 Q 2.08740234375 0.8994140625 2.08447265625 0.9063720703125 Q 2.08154296875 0.913330078125 2.07861328125 0.919189453125 Q 2.066162109375 0.941162109375 2.0496826171875 0.9613037109375 Q 2.033203125 0.9814453125 2.0108642578125 0.9964599609375 Q 1.988525390625 1.011474609375 1.960693359375 1.020263671875 Q 1.932861328125 1.029052734375 1.8984375 1.0283203125 M 1.773193359375 0.84375 Q 1.773193359375 0.857666015625 1.77685546875 0.873046875 Q 1.780517578125 0.888427734375 1.7882080078125 0.9034423828125 Q 1.7958984375 0.91845703125 1.8072509765625 0.9320068359375 Q 1.818603515625 0.945556640625 1.833984375 0.955078125 Q 1.836181640625 0.939697265625 1.836181640625 0.925048828125 Q 1.836181640625 0.9052734375 1.833251953125 0.884765625 Q 1.830322265625 0.8642578125 1.8248291015625 0.8470458984375 Q 1.8193359375 0.829833984375 1.811279296875 0.8192138671875 Q 1.80322265625 0.80859375 1.792236328125 0.80859375 Q 1.787841796875 0.80859375 1.780517578125 0.815185546875 Q 1.773193359375 0.82177734375 1.773193359375 0.84375 M 2.196533203125 1.04296875 Q 2.208251953125 1.018798828125 2.2236328125 0.9898681640625 Q 2.239013671875 0.9609375 2.256591796875 0.9312744140625 Q 2.274169921875 0.901611328125 2.2935791015625 0.872314453125 Q 2.31298828125 0.843017578125 2.334228515625 0.816650390625 Q 2.35546875 0.791015625 2.3770751953125 0.7796630859375 Q 2.398681640625 0.768310546875 2.417724609375 0.768310546875 Q 2.455810546875 0.768310546875 2.47412109375 0.796142578125 Q 2.492431640625 0.823974609375 2.492431640625 0.864990234375 Q 2.492431640625 0.87451171875 2.4913330078125 0.8880615234375 Q 2.490234375 0.901611328125 2.4891357421875 0.9169921875 Q 2.488037109375 0.932373046875 2.4869384765625 0.9481201171875 Q 2.48583984375 0.9638671875 2.48583984375 0.977783203125 Q 2.48583984375 0.995361328125 2.4876708984375 1.011474609375 Q 2.489501953125 1.027587890625 2.49462890625 1.0396728515625 Q 2.499755859375 1.0517578125 2.50927734375 1.0587158203125 Q 2.518798828125 1.065673828125 2.5341796875 1.065673828125 Q 2.56201171875 1.065673828125 2.58837890625 1.0440673828125 Q 2.61474609375 1.0224609375 2.6370849609375 0.9927978515625 Q 2.659423828125 0.963134765625 2.6759033203125 0.932373046875 Q 2.6923828125 0.901611328125 2.700439453125 0.882568359375 Q 2.7041015625 0.87451171875 2.7110595703125 0.8701171875 Q 2.718017578125 0.86572265625 2.72607421875 0.86572265625 Q 2.738525390625 0.86572265625 2.7462158203125 0.8748779296875 Q 2.75390625 0.884033203125 2.75390625 0.894287109375 Q 2.75390625 0.8994140625 2.751708984375 0.904541015625 Q 2.748779296875 0.910400390625 2.739990234375 0.9287109375 Q 2.731201171875 0.947021484375 2.7169189453125 0.9708251953125 Q 2.70263671875 0.99462890625 2.68359375 1.0213623046875 Q 2.66455078125 1.048095703125 2.6414794921875 1.070068359375 Q 2.618408203125 1.092041015625 2.5916748046875 1.106689453125 Q 2.56494140625 1.121337890625 2.53564453125 1.121337890625 Q 2.502685546875 1.121337890625 2.482177734375 1.1085205078125 Q 2.461669921875 1.095703125 2.449951171875 1.0748291015625 Q 2.438232421875 1.053955078125 2.4342041015625 1.0286865234375 Q 2.43017578125 1.00341796875 2.43017578125 0.977783203125 Q 2.43017578125 0.966796875 2.4312744140625 0.952880859375 Q 2.432373046875 0.93896484375 2.4342041015625 0.923583984375 Q 2.43603515625 0.908203125 2.4371337890625 0.892822265625 Q 2.438232421875 0.87744140625 2.438232421875 0.863525390625 Q 2.438232421875 0.840087890625 2.430908203125 0.8316650390625 Q 2.423583984375 0.8232421875 2.417724609375 0.8232421875 Q 2.406005859375 0.8232421875 2.3909912109375 0.8367919921875 Q 2.3759765625 0.850341796875 2.3594970703125 0.872314453125 Q 2.343017578125 0.894287109375 2.3258056640625 0.9217529296875 Q 2.30859375 0.94921875 2.2935791015625 0.976318359375 Q 2.278564453125 1.00341796875 2.2657470703125 1.0279541015625 Q 2.2529296875 1.052490234375 2.24560546875 1.068603515625 Q 2.23095703125 1.099365234375 2.21630859375 1.1099853515625 Q 2.20166015625 1.12060546875 2.186279296875 1.12060546875 Q 2.1650390625 1.12060546875 2.1522216796875 1.1077880859375 Q 2.139404296875 1.094970703125 2.139404296875 1.071533203125 Q 2.139404296875 1.06640625 2.140869140625 1.0513916015625 Q 2.142333984375 1.036376953125 2.14453125 1.0155029296875 Q 2.146728515625 0.99462890625 2.14892578125 0.970458984375 Q 2.151123046875 0.9462890625 2.1533203125 0.9224853515625 Q 2.155517578125 0.898681640625 2.156982421875 0.878173828125 Q 2.158447265625 0.857666015625 2.158447265625 0.84375 Q 2.158447265625 0.825439453125 2.156982421875 0.80859375 Q 2.155517578125 0.791748046875 2.151123046875 0.7880859375 Q 2.14453125 0.790283203125 2.127685546875 0.8155517578125 Q 2.11083984375 0.8408203125 2.08447265625 0.904541015625 Q 2.080810546875 0.91259765625 2.073486328125 0.9169921875 Q 2.066162109375 0.92138671875 2.05810546875 0.92138671875 Q 2.045654296875 0.92138671875 2.038330078125 0.9129638671875 Q 2.031005859375 0.904541015625 2.031005859375 0.8935546875 Q 2.031005859375 0.888427734375 2.033203125 0.882568359375 Q 2.066162109375 0.80419921875 2.0950927734375 0.7672119140625 Q 2.1240234375 0.730224609375 2.152587890625 0.730224609375 Q 2.16943359375 0.730224609375 2.18115234375 0.7386474609375 Q 2.19287109375 0.7470703125 2.1998291015625 0.760986328125 Q 2.206787109375 0.77490234375 2.2100830078125 0.791748046875 Q 2.21337890625 0.80859375 2.21337890625 0.826171875 Q 2.21337890625 0.83935546875 2.2115478515625 0.8671875 Q 2.209716796875 0.89501953125 2.206787109375 0.9268798828125 Q 2.203857421875 0.958740234375 2.2012939453125 0.990234375 Q 2.19873046875 1.021728515625 2.196533203125 1.04296875 M 3.2666015625 0.904541015625 Q 3.263671875 0.910400390625 3.2545166015625 0.9290771484375 Q 3.245361328125 0.94775390625 3.2310791015625 0.971923828125 Q 3.216796875 0.99609375 3.19775390625 1.0224609375 Q 3.1787109375 1.048828125 3.1552734375 1.07080078125 Q 3.1318359375 1.0927734375 3.104736328125 1.1070556640625 Q 3.07763671875 1.121337890625 3.047607421875 1.121337890625 Q 3.005126953125 1.121337890625 2.9761962890625 1.09423828125 Q 2.947265625 1.067138671875 2.93408203125 1.026123046875 Q 2.9091796875 1.06787109375 2.874755859375 1.0924072265625 Q 2.84033203125 1.116943359375 2.805908203125 1.116943359375 Q 2.77880859375 1.116943359375 2.7568359375 1.1070556640625 Q 2.73486328125 1.09716796875 2.719482421875 1.0792236328125 Q 2.7041015625 1.061279296875 2.6956787109375 1.037109375 Q 2.687255859375 1.012939453125 2.687255859375 0.984375 Q 2.687255859375 0.92724609375 2.7066650390625 0.8836669921875 Q 2.72607421875 0.840087890625 2.756103515625 0.810791015625 Q 2.7861328125 0.781494140625 2.8223876953125 0.766845703125 Q 2.858642578125 0.752197265625 2.892333984375 0.752197265625 Q 2.9150390625 0.752197265625 2.93408203125 0.7584228515625 Q 2.953125 0.7646484375 2.9666748046875 0.77197265625 Q 2.980224609375 0.779296875 2.987548828125 0.7855224609375 Q 2.994873046875 0.791748046875 2.99560546875 0.79248046875 Q 3.003662109375 0.802001953125 3.003662109375 0.812255859375 Q 3.003662109375 0.8232421875 2.99560546875 0.8316650390625 Q 2.987548828125 0.840087890625 2.9765625 0.840087890625 Q 2.96484375 0.840087890625 2.956787109375 0.83203125 Q 2.955322265625 0.83056640625 2.9501953125 0.8265380859375 Q 2.945068359375 0.822509765625 2.936279296875 0.818115234375 Q 2.927490234375 0.813720703125 2.9154052734375 0.8104248046875 Q 2.9033203125 0.80712890625 2.887939453125 0.80712890625 Q 2.865234375 0.80712890625 2.839599609375 0.8173828125 Q 2.81396484375 0.82763671875 2.792724609375 0.8492431640625 Q 2.771484375 0.870849609375 2.7572021484375 0.9034423828125 Q 2.742919921875 0.93603515625 2.742919921875 0.980712890625 Q 2.742919921875 0.99462890625 2.745849609375 1.0089111328125 Q 2.748779296875 1.023193359375 2.756103515625 1.034912109375 Q 2.763427734375 1.046630859375 2.77587890625 1.053955078125 Q 2.788330078125 1.061279296875 2.806640625 1.061279296875 Q 2.81982421875 1.061279296875 2.8370361328125 1.052490234375 Q 2.854248046875 1.043701171875 2.8699951171875 1.025390625 Q 2.8857421875 1.007080078125 2.8985595703125 0.979248046875 Q 2.911376953125 0.951416015625 2.91650390625 0.913330078125 Q 2.91796875 0.903076171875 2.926025390625 0.8961181640625 Q 2.93408203125 0.88916015625 2.945068359375 0.88916015625 Q 2.955322265625 0.88916015625 2.9630126953125 0.897216796875 Q 2.970703125 0.9052734375 2.971435546875 0.91552734375 Q 2.97216796875 0.929443359375 2.974365234375 0.9547119140625 Q 2.9765625 0.97998046875 2.9842529296875 1.0048828125 Q 2.991943359375 1.02978515625 3.00732421875 1.048095703125 Q 3.022705078125 1.06640625 3.0498046875 1.06640625 Q 3.0673828125 1.06640625 3.0845947265625 1.056884765625 Q 3.101806640625 1.04736328125 3.1182861328125 1.0316162109375 Q 3.134765625 1.015869140625 3.1497802734375 0.9957275390625 Q 3.164794921875 0.9755859375 3.17724609375 0.955078125 Q 3.189697265625 0.9345703125 3.19921875 0.91552734375 Q 3.208740234375 0.896484375 3.21533203125 0.882568359375 Q 3.218994140625 0.87451171875 3.2259521484375 0.8701171875 Q 3.23291015625 0.86572265625 3.240966796875 0.86572265625 Q 3.25341796875 0.86572265625 3.2611083984375 0.8748779296875 Q 3.268798828125 0.884033203125 3.268798828125 0.894287109375 Q 3.268798828125 0.8994140625 3.2666015625 0.904541015625 M 3.80859375 0.375732421875 Q 3.80859375 0.387451171875 3.800537109375 0.3944091796875 Q 3.79248046875 0.4013671875 3.78076171875 0.4013671875 L 3.409423828125 0.4013671875 L 3.409423828125 0.409423828125 Q 3.409423828125 0.4541015625 3.40283203125 0.504638671875 Q 3.396240234375 0.55517578125 3.3848876953125 0.6053466796875 Q 3.37353515625 0.655517578125 3.3592529296875 0.703125 Q 3.344970703125 0.750732421875 3.3299560546875 0.791015625 Q 3.31494140625 0.831298828125 3.30029296875 0.8609619140625 Q 3.28564453125 0.890625 3.27392578125 0.9052734375 Q 3.283447265625 0.93896484375 3.296630859375 0.9678955078125 Q 3.309814453125 0.996826171875 3.3262939453125 1.0184326171875 Q 3.3427734375 1.0400390625 3.36181640625 1.052490234375 Q 3.380859375 1.06494140625 3.40283203125 1.06494140625 Q 3.428466796875 1.06494140625 3.4537353515625 1.0433349609375 Q 3.47900390625 1.021728515625 3.5006103515625 0.9920654296875 Q 3.522216796875 0.96240234375 3.5386962890625 0.9320068359375 Q 3.55517578125 0.901611328125 3.5625 0.88330078125 Q 3.56982421875 0.86572265625 3.588134765625 0.86572265625 Q 3.6005859375 0.86572265625 3.6082763671875 0.87451171875 Q 3.615966796875 0.88330078125 3.615966796875 0.8935546875 Q 3.615966796875 0.898681640625 3.61376953125 0.90380859375 Q 3.611572265625 0.908935546875 3.6031494140625 0.92724609375 Q 3.5947265625 0.945556640625 3.5811767578125 0.9697265625 Q 3.567626953125 0.993896484375 3.5496826171875 1.0206298828125 Q 3.53173828125 1.04736328125 3.5093994140625 1.0693359375 Q 3.487060546875 1.09130859375 3.46142578125 1.10595703125 Q 3.435791015625 1.12060546875 3.4072265625 1.12060546875 Q 3.356689453125 1.12060546875 3.31640625 1.087646484375 Q 3.276123046875 1.0546875 3.2479248046875 0.995361328125 Q 3.2197265625 0.93603515625 3.205078125 0.854736328125 Q 3.1904296875 0.7734375 3.1904296875 0.6767578125 Q 3.1904296875 0.652587890625 3.191162109375 0.6199951171875 Q 3.19189453125 0.58740234375 3.194091796875 0.5511474609375 Q 3.1962890625 0.514892578125 3.20068359375 0.4764404296875 Q 3.205078125 0.43798828125 3.21240234375 0.4013671875 L 2.949462890625 0.4013671875 Q 2.937744140625 0.4013671875 2.9296875 0.3944091796875 Q 2.921630859375 0.387451171875 2.921630859375 0.375732421875 Q 2.921630859375 0.364013671875 2.9296875 0.3570556640625 Q 2.937744140625 0.35009765625 2.949462890625 0.35009765625 L 3.224853515625 0.35009765625 Q 3.232177734375 0.32373046875 3.2420654296875 0.3017578125 Q 3.251953125 0.27978515625 3.2647705078125 0.263671875 Q 3.277587890625 0.24755859375 3.2933349609375 0.2384033203125 Q 3.30908203125 0.229248046875 3.328125 0.229248046875 Q 3.346435546875 0.229248046875 3.3599853515625 0.2384033203125 Q 3.37353515625 0.24755859375 3.383056640625 0.263671875 Q 3.392578125 0.27978515625 3.3980712890625 0.3017578125 Q 3.403564453125 0.32373046875 3.406494140625 0.35009765625 L 3.78076171875 0.35009765625 Q 3.79248046875 0.35009765625 3.800537109375 0.3570556640625 Q 3.80859375 0.364013671875 3.80859375 0.375732421875 M 3.257080078125 0.83203125 Q 3.279052734375 0.78369140625 3.2969970703125 0.7276611328125 Q 3.31494140625 0.671630859375 3.3277587890625 0.614501953125 Q 3.340576171875 0.557373046875 3.3475341796875 0.50244140625 Q 3.3544921875 0.447509765625 3.3544921875 0.4013671875 L 3.26806640625 0.4013671875 Q 3.2578125 0.44677734375 3.2515869140625 0.5137939453125 Q 3.245361328125 0.580810546875 3.245361328125 0.6767578125 Q 3.245361328125 0.730224609375 3.248291015625 0.7664794921875 Q 3.251220703125 0.802734375 3.257080078125 0.83203125 M 3.3251953125 0.2841796875 Q 3.318603515625 0.2841796875 3.30615234375 0.2984619140625 Q 3.293701171875 0.312744140625 3.28125 0.35009765625 L 3.3515625 0.35009765625 Q 3.347900390625 0.3193359375 3.3409423828125 0.3017578125 Q 3.333984375 0.2841796875 3.3251953125 0.2841796875 M 3.268798828125 0.884765625 L 3.268798828125 0.885498046875 L 3.268798828125 0.884765625 M 3.652587890625 1.0283203125 Q 3.66796875 1.049560546875 3.692138671875 1.0623779296875 Q 3.71630859375 1.0751953125 3.75146484375 1.0751953125 Q 3.787353515625 1.0751953125 3.816650390625 1.0579833984375 Q 3.845947265625 1.040771484375 3.8701171875 1.012939453125 Q 3.894287109375 0.985107421875 3.913330078125 0.95068359375 Q 3.932373046875 0.916259765625 3.94775390625 0.8818359375 Q 3.951416015625 0.873779296875 3.9580078125 0.8697509765625 Q 3.964599609375 0.86572265625 3.97265625 0.86572265625 Q 3.985107421875 0.86572265625 3.9927978515625 0.87451171875 Q 4.00048828125 0.88330078125 4.00048828125 0.8935546875 Q 4.00048828125 0.897216796875 3.999755859375 0.8997802734375 Q 3.9990234375 0.90234375 3.99755859375 0.9052734375 Q 3.947021484375 1.0166015625 3.8873291015625 1.072998046875 Q 3.82763671875 1.12939453125 3.752197265625 1.130859375 Q 3.703857421875 1.130859375 3.668701171875 1.1121826171875 Q 3.633544921875 1.093505859375 3.61083984375 1.0638427734375 Q 3.588134765625 1.0341796875 3.5771484375 0.996826171875 Q 3.566162109375 0.95947265625 3.566162109375 0.922119140625 Q 3.566162109375 0.884765625 3.5753173828125 0.853271484375 Q 3.58447265625 0.82177734375 3.6016845703125 0.79833984375 Q 3.618896484375 0.77490234375 3.6427001953125 0.76171875 Q 3.66650390625 0.74853515625 3.695068359375 0.74853515625 Q 3.7119140625 0.74853515625 3.7283935546875 0.7554931640625 Q 3.744873046875 0.762451171875 3.758056640625 0.7752685546875 Q 3.771240234375 0.7880859375 3.779296875 0.806396484375 Q 3.787353515625 0.82470703125 3.787353515625 0.84814453125 Q 3.787353515625 0.878173828125 3.777099609375 0.904541015625 Q 3.766845703125 0.930908203125 3.7489013671875 0.95361328125 Q 3.73095703125 0.976318359375 3.7060546875 0.995361328125 Q 3.68115234375 1.014404296875 3.652587890625 1.0283203125 M 3.630615234375 0.980712890625 Q 3.6533203125 0.97119140625 3.6719970703125 0.95654296875 Q 3.690673828125 0.94189453125 3.703857421875 0.92431640625 Q 3.717041015625 0.90673828125 3.724365234375 0.8873291015625 Q 3.731689453125 0.867919921875 3.731689453125 0.84814453125 Q 3.731689453125 0.826171875 3.720703125 0.8148193359375 Q 3.709716796875 0.803466796875 3.695068359375 0.803466796875 Q 3.67529296875 0.803466796875 3.661376953125 0.814453125 Q 3.6474609375 0.825439453125 3.638671875 0.843017578125 Q 3.6298828125 0.860595703125 3.6258544921875 0.8822021484375 Q 3.621826171875 0.90380859375 3.621826171875 0.925048828125 Q 3.621826171875 0.938232421875 3.6243896484375 0.952880859375 Q 3.626953125 0.967529296875 3.630615234375 0.980712890625 M 5.29833984375 0.385986328125 Q 5.29833984375 0.474609375 5.2646484375 0.5445556640625 Q 5.23095703125 0.614501953125 5.16943359375 0.6632080078125 Q 5.10791015625 0.7119140625 5.022216796875 0.7379150390625 Q 4.9365234375 0.763916015625 4.833251953125 0.763916015625 Q 4.82080078125 0.763916015625 4.8116455078125 0.7569580078125 Q 4.802490234375 0.75 4.802490234375 0.736083984375 Q 4.802490234375 0.72509765625 4.810546875 0.717041015625 Q 4.818603515625 0.708984375 4.830322265625 0.708984375 Q 4.922607421875 0.708984375 4.998779296875 0.687744140625 Q 5.074951171875 0.66650390625 5.129150390625 0.6251220703125 Q 5.183349609375 0.583740234375 5.21337890625 0.523681640625 Q 5.243408203125 0.463623046875 5.243408203125 0.385986328125 Q 5.243408203125 0.306884765625 5.2086181640625 0.245361328125 Q 5.173828125 0.183837890625 5.1112060546875 0.141357421875 Q 5.048583984375 0.098876953125 4.9617919921875 0.076904296875 Q 4.875 0.054931640625 4.77099609375 0.054931640625 Q 4.6728515625 0.054931640625 4.5809326171875 0.071044921875 Q 4.489013671875 0.087158203125 4.408447265625 0.116455078125 Q 4.327880859375 0.145751953125 4.2615966796875 0.186767578125 Q 4.1953125 0.227783203125 4.1480712890625 0.27685546875 Q 4.100830078125 0.325927734375 4.074462890625 0.3819580078125 Q 4.048095703125 0.43798828125 4.048095703125 0.498046875 Q 4.048095703125 0.55078125 4.06640625 0.59033203125 Q 4.084716796875 0.6298828125 4.1151123046875 0.6566162109375 Q 4.1455078125 0.683349609375 4.18505859375 0.696533203125 Q 4.224609375 0.709716796875 4.267822265625 0.709716796875 Q 4.319091796875 0.709716796875 4.3590087890625 0.69873046875 Q 4.39892578125 0.687744140625 4.4263916015625 0.674560546875 Q 4.453857421875 0.661376953125 4.468505859375 0.6500244140625 Q 4.483154296875 0.638671875 4.484619140625 0.63720703125 Q 4.49267578125 0.629150390625 4.503662109375 0.629150390625 Q 4.5146484375 0.629150390625 4.5230712890625 0.6375732421875 Q 4.531494140625 0.64599609375 4.531494140625 0.656982421875 Q 4.531494140625 0.66943359375 4.522705078125 0.6767578125 Q 4.521240234375 0.67822265625 4.5040283203125 0.692138671875 Q 4.48681640625 0.7060546875 4.4542236328125 0.7225341796875 Q 4.421630859375 0.739013671875 4.374755859375 0.752197265625 Q 4.327880859375 0.765380859375 4.267822265625 0.765380859375 Q 4.212890625 0.765380859375 4.1627197265625 0.7470703125 Q 4.112548828125 0.728759765625 4.0748291015625 0.6939697265625 Q 4.037109375 0.6591796875 4.0147705078125 0.6097412109375 Q 3.992431640625 0.560302734375 3.992431640625 0.498046875 Q 3.992431640625 0.429931640625 4.0206298828125 0.3665771484375 Q 4.048828125 0.30322265625 4.0997314453125 0.2479248046875 Q 4.150634765625 0.192626953125 4.2216796875 0.1468505859375 Q 4.292724609375 0.10107421875 4.379150390625 0.0684814453125 Q 4.465576171875 0.035888671875 4.564453125 0.0179443359375 Q 4.663330078125 0 4.76953125 0 Q 4.885986328125 0 4.9833984375 0.0263671875 Q 5.080810546875 0.052734375 5.1507568359375 0.1025390625 Q 5.220703125 0.15234375 5.259521484375 0.2237548828125 Q 5.29833984375 0.295166015625 5.29833984375 0.385986328125 M 4.86328125 0.211669921875 Q 4.874267578125 0.211669921875 4.8826904296875 0.2193603515625 Q 4.89111328125 0.22705078125 4.89111328125 0.239501953125 Q 4.89111328125 0.246826171875 4.8870849609375 0.252685546875 Q 4.883056640625 0.258544921875 4.877197265625 0.263671875 Q 4.836181640625 0.2958984375 4.8116455078125 0.333251953125 Q 4.787109375 0.37060546875 4.7742919921875 0.4134521484375 Q 4.761474609375 0.456298828125 4.7574462890625 0.504638671875 Q 4.75341796875 0.552978515625 4.75341796875 0.605712890625 L 4.75341796875 0.697998046875 Q 4.75341796875 0.788818359375 4.7373046875 0.8704833984375 Q 4.72119140625 0.9521484375 4.6827392578125 1.013671875 Q 4.644287109375 1.0751953125 4.579833984375 1.1114501953125 Q 4.515380859375 1.147705078125 4.41796875 1.147705078125 Q 4.3740234375 1.147705078125 4.3319091796875 1.1370849609375 Q 4.289794921875 1.12646484375 4.25244140625 1.1063232421875 Q 4.215087890625 1.086181640625 4.18359375 1.056884765625 Q 4.152099609375 1.027587890625 4.12939453125 0.990966796875 Q 4.1279296875 0.988037109375 4.12646484375 0.9840087890625 Q 4.125 0.97998046875 4.125 0.976318359375 Q 4.125 0.966064453125 4.1326904296875 0.9576416015625 Q 4.140380859375 0.94921875 4.15283203125 0.94921875 Q 4.16015625 0.94921875 4.1663818359375 0.9532470703125 Q 4.172607421875 0.957275390625 4.177001953125 0.963134765625 Q 4.223876953125 1.0283203125 4.283203125 1.0609130859375 Q 4.342529296875 1.093505859375 4.41796875 1.093505859375 Q 4.50439453125 1.093505859375 4.5589599609375 1.0616455078125 Q 4.613525390625 1.02978515625 4.6446533203125 0.9744873046875 Q 4.67578125 0.919189453125 4.6871337890625 0.84521484375 Q 4.698486328125 0.771240234375 4.698486328125 0.687744140625 L 4.698486328125 0.5947265625 Q 4.698486328125 0.545654296875 4.702880859375 0.4932861328125 Q 4.707275390625 0.44091796875 4.7230224609375 0.3907470703125 Q 4.73876953125 0.340576171875 4.7684326171875 0.2955322265625 Q 4.798095703125 0.25048828125 4.8486328125 0.216064453125 Q 4.8515625 0.214599609375 4.85595703125 0.213134765625 Q 4.8603515625 0.211669921875 4.86328125 0.211669921875 M 5.76416015625 0.906005859375 Q 5.756103515625 0.9228515625 5.7440185546875 0.9459228515625 Q 5.73193359375 0.968994140625 5.716552734375 0.993896484375 Q 5.701171875 1.018798828125 5.68212890625 1.0433349609375 Q 5.6630859375 1.06787109375 5.6407470703125 1.0872802734375 Q 5.618408203125 1.106689453125 5.5931396484375 1.1187744140625 Q 5.56787109375 1.130859375 5.539306640625 1.130859375 Q 5.495361328125 1.130859375 5.4638671875 1.103759765625 Q 5.432373046875 1.07666015625 5.410400390625 1.03271484375 Q 5.388427734375 0.98876953125 5.3748779296875 0.9327392578125 Q 5.361328125 0.876708984375 5.35400390625 0.8184814453125 Q 5.3466796875 0.76025390625 5.3441162109375 0.705322265625 Q 5.341552734375 0.650390625 5.341552734375 0.60791015625 Q 5.341552734375 0.54638671875 5.3455810546875 0.48046875 Q 5.349609375 0.41455078125 5.3583984375 0.3515625 Q 5.3671875 0.28857421875 5.3807373046875 0.232177734375 Q 5.394287109375 0.17578125 5.4129638671875 0.13330078125 Q 5.431640625 0.0908203125 5.455810546875 0.06591796875 Q 5.47998046875 0.041015625 5.5107421875 0.041015625 Q 5.534912109375 0.041015625 5.5543212890625 0.0523681640625 Q 5.57373046875 0.063720703125 5.5869140625 0.08935546875 Q 5.60009765625 0.114990234375 5.607421875 0.156005859375 Q 5.61474609375 0.197021484375 5.61474609375 0.25634765625 Q 5.61474609375 0.32958984375 5.599365234375 0.4075927734375 Q 5.583984375 0.485595703125 5.5576171875 0.564697265625 Q 5.53125 0.643798828125 5.495361328125 0.7225341796875 Q 5.45947265625 0.80126953125 5.41845703125 0.8759765625 Q 5.436767578125 0.968994140625 5.467529296875 1.0220947265625 Q 5.498291015625 1.0751953125 5.54150390625 1.0751953125 Q 5.57080078125 1.0751953125 5.597900390625 1.0521240234375 Q 5.625 1.029052734375 5.647705078125 0.99755859375 Q 5.67041015625 0.966064453125 5.6876220703125 0.9334716796875 Q 5.704833984375 0.90087890625 5.71435546875 0.881103515625 Q 5.718017578125 0.873779296875 5.724609375 0.8697509765625 Q 5.731201171875 0.86572265625 5.7392578125 0.86572265625 Q 5.751708984375 0.86572265625 5.7593994140625 0.87451171875 Q 5.76708984375 0.88330078125 5.76708984375 0.894287109375 Q 5.76708984375 0.898681640625 5.76416015625 0.906005859375 M 5.397216796875 0.611572265625 Q 5.397216796875 0.658447265625 5.3994140625 0.70166015625 Q 5.401611328125 0.744873046875 5.4052734375 0.784423828125 Q 5.43603515625 0.72509765625 5.4638671875 0.6580810546875 Q 5.49169921875 0.591064453125 5.512939453125 0.5225830078125 Q 5.5341796875 0.4541015625 5.5469970703125 0.3863525390625 Q 5.559814453125 0.318603515625 5.559814453125 0.257080078125 Q 5.559814453125 0.170654296875 5.5458984375 0.13330078125 Q 5.531982421875 0.095947265625 5.508544921875 0.095947265625 Q 5.4931640625 0.095947265625 5.4788818359375 0.1171875 Q 5.464599609375 0.138427734375 5.4521484375 0.175048828125 Q 5.439697265625 0.211669921875 5.429443359375 0.261474609375 Q 5.419189453125 0.311279296875 5.4122314453125 0.368408203125 Q 5.4052734375 0.425537109375 5.4012451171875 0.48779296875 Q 5.397216796875 0.550048828125 5.397216796875 0.611572265625 M 6.27978515625 0.904541015625 Q 6.27685546875 0.910400390625 6.2677001953125 0.9290771484375 Q 6.258544921875 0.94775390625 6.2442626953125 0.971923828125 Q 6.22998046875 0.99609375 6.2109375 1.0224609375 Q 6.19189453125 1.048828125 6.16845703125 1.07080078125 Q 6.14501953125 1.0927734375 6.117919921875 1.1070556640625 Q 6.0908203125 1.121337890625 6.060791015625 1.121337890625 Q 6.018310546875 1.121337890625 5.9893798828125 1.09423828125 Q 5.96044921875 1.067138671875 5.947265625 1.026123046875 Q 5.92236328125 1.06787109375 5.887939453125 1.0924072265625 Q 5.853515625 1.116943359375 5.819091796875 1.116943359375 Q 5.7919921875 1.116943359375 5.77001953125 1.1070556640625 Q 5.748046875 1.09716796875 5.732666015625 1.0792236328125 Q 5.71728515625 1.061279296875 5.7088623046875 1.037109375 Q 5.700439453125 1.012939453125 5.700439453125 0.984375 Q 5.700439453125 0.92724609375 5.7198486328125 0.8836669921875 Q 5.7392578125 0.840087890625 5.769287109375 0.810791015625 Q 5.79931640625 0.781494140625 5.8355712890625 0.766845703125 Q 5.871826171875 0.752197265625 5.905517578125 0.752197265625 Q 5.92822265625 0.752197265625 5.947265625 0.7584228515625 Q 5.96630859375 0.7646484375 5.9798583984375 0.77197265625 Q 5.993408203125 0.779296875 6.000732421875 0.7855224609375 Q 6.008056640625 0.791748046875 6.0087890625 0.79248046875 Q 6.016845703125 0.802001953125 6.016845703125 0.812255859375 Q 6.016845703125 0.8232421875 6.0087890625 0.8316650390625 Q 6.000732421875 0.840087890625 5.98974609375 0.840087890625 Q 5.97802734375 0.840087890625 5.969970703125 0.83203125 Q 5.968505859375 0.83056640625 5.96337890625 0.8265380859375 Q 5.958251953125 0.822509765625 5.949462890625 0.818115234375 Q 5.940673828125 0.813720703125 5.9285888671875 0.8104248046875 Q 5.91650390625 0.80712890625 5.901123046875 0.80712890625 Q 5.87841796875 0.80712890625 5.852783203125 0.8173828125 Q 5.8271484375 0.82763671875 5.805908203125 0.8492431640625 Q 5.78466796875 0.870849609375 5.7703857421875 0.9034423828125 Q 5.756103515625 0.93603515625 5.756103515625 0.980712890625 Q 5.756103515625 0.99462890625 5.759033203125 1.0089111328125 Q 5.761962890625 1.023193359375 5.769287109375 1.034912109375 Q 5.776611328125 1.046630859375 5.7890625 1.053955078125 Q 5.801513671875 1.061279296875 5.81982421875 1.061279296875 Q 5.8330078125 1.061279296875 5.8502197265625 1.052490234375 Q 5.867431640625 1.043701171875 5.8831787109375 1.025390625 Q 5.89892578125 1.007080078125 5.9117431640625 0.979248046875 Q 5.924560546875 0.951416015625 5.9296875 0.913330078125 Q 5.93115234375 0.903076171875 5.939208984375 0.8961181640625 Q 5.947265625 0.88916015625 5.958251953125 0.88916015625 Q 5.968505859375 0.88916015625 5.9761962890625 0.897216796875 Q 5.98388671875 0.9052734375 5.984619140625 0.91552734375 Q 5.9853515625 0.929443359375 5.987548828125 0.9547119140625 Q 5.98974609375 0.97998046875 5.9974365234375 1.0048828125 Q 6.005126953125 1.02978515625 6.0205078125 1.048095703125 Q 6.035888671875 1.06640625 6.06298828125 1.06640625 Q 6.08056640625 1.06640625 6.0977783203125 1.056884765625 Q 6.114990234375 1.04736328125 6.1314697265625 1.0316162109375 Q 6.14794921875 1.015869140625 6.1629638671875 0.9957275390625 Q 6.177978515625 0.9755859375 6.1904296875 0.955078125 Q 6.202880859375 0.9345703125 6.21240234375 0.91552734375 Q 6.221923828125 0.896484375 6.228515625 0.882568359375 Q 6.232177734375 0.87451171875 6.2391357421875 0.8701171875 Q 6.24609375 0.86572265625 6.254150390625 0.86572265625 Q 6.2666015625 0.86572265625 6.2742919921875 0.8748779296875 Q 6.281982421875 0.884033203125 6.281982421875 0.894287109375 Q 6.281982421875 0.8994140625 6.27978515625 0.904541015625 M 6.82177734375 0.375732421875 Q 6.82177734375 0.387451171875 6.813720703125 0.3944091796875 Q 6.8056640625 0.4013671875 6.7939453125 0.4013671875 L 6.422607421875 0.4013671875 L 6.422607421875 0.409423828125 Q 6.422607421875 0.4541015625 6.416015625 0.504638671875 Q 6.409423828125 0.55517578125 6.3980712890625 0.6053466796875 Q 6.38671875 0.655517578125 6.3724365234375 0.703125 Q 6.358154296875 0.750732421875 6.3431396484375 0.791015625 Q 6.328125 0.831298828125 6.3134765625 0.8609619140625 Q 6.298828125 0.890625 6.287109375 0.9052734375 Q 6.296630859375 0.93896484375 6.309814453125 0.9678955078125 Q 6.322998046875 0.996826171875 6.3394775390625 1.0184326171875 Q 6.35595703125 1.0400390625 6.375 1.052490234375 Q 6.39404296875 1.06494140625 6.416015625 1.06494140625 Q 6.441650390625 1.06494140625 6.4669189453125 1.0433349609375 Q 6.4921875 1.021728515625 6.5137939453125 0.9920654296875 Q 6.535400390625 0.96240234375 6.5518798828125 0.9320068359375 Q 6.568359375 0.901611328125 6.57568359375 0.88330078125 Q 6.5830078125 0.86572265625 6.601318359375 0.86572265625 Q 6.61376953125 0.86572265625 6.6214599609375 0.87451171875 Q 6.629150390625 0.88330078125 6.629150390625 0.8935546875 Q 6.629150390625 0.898681640625 6.626953125 0.90380859375 Q 6.624755859375 0.908935546875 6.6163330078125 0.92724609375 Q 6.60791015625 0.945556640625 6.5943603515625 0.9697265625 Q 6.580810546875 0.993896484375 6.5628662109375 1.0206298828125 Q 6.544921875 1.04736328125 6.5225830078125 1.0693359375 Q 6.500244140625 1.09130859375 6.474609375 1.10595703125 Q 6.448974609375 1.12060546875 6.42041015625 1.12060546875 Q 6.369873046875 1.12060546875 6.32958984375 1.087646484375 Q 6.289306640625 1.0546875 6.2611083984375 0.995361328125 Q 6.23291015625 0.93603515625 6.21826171875 0.854736328125 Q 6.20361328125 0.7734375 6.20361328125 0.6767578125 Q 6.20361328125 0.652587890625 6.204345703125 0.6199951171875 Q 6.205078125 0.58740234375 6.207275390625 0.5511474609375 Q 6.20947265625 0.514892578125 6.2138671875 0.4764404296875 Q 6.21826171875 0.43798828125 6.2255859375 0.4013671875 L 5.962646484375 0.4013671875 Q 5.950927734375 0.4013671875 5.94287109375 0.3944091796875 Q 5.934814453125 0.387451171875 5.934814453125 0.375732421875 Q 5.934814453125 0.364013671875 5.94287109375 0.3570556640625 Q 5.950927734375 0.35009765625 5.962646484375 0.35009765625 L 6.238037109375 0.35009765625 Q 6.245361328125 0.32373046875 6.2552490234375 0.3017578125 Q 6.26513671875 0.27978515625 6.2779541015625 0.263671875 Q 6.290771484375 0.24755859375 6.3065185546875 0.2384033203125 Q 6.322265625 0.229248046875 6.34130859375 0.229248046875 Q 6.359619140625 0.229248046875 6.3731689453125 0.2384033203125 Q 6.38671875 0.24755859375 6.396240234375 0.263671875 Q 6.40576171875 0.27978515625 6.4112548828125 0.3017578125 Q 6.416748046875 0.32373046875 6.419677734375 0.35009765625 L 6.7939453125 0.35009765625 Q 6.8056640625 0.35009765625 6.813720703125 0.3570556640625 Q 6.82177734375 0.364013671875 6.82177734375 0.375732421875 M 6.270263671875 0.83203125 Q 6.292236328125 0.78369140625 6.3101806640625 0.7276611328125 Q 6.328125 0.671630859375 6.3409423828125 0.614501953125 Q 6.353759765625 0.557373046875 6.3607177734375 0.50244140625 Q 6.36767578125 0.447509765625 6.36767578125 0.4013671875 L 6.28125 0.4013671875 Q 6.27099609375 0.44677734375 6.2647705078125 0.5137939453125 Q 6.258544921875 0.580810546875 6.258544921875 0.6767578125 Q 6.258544921875 0.730224609375 6.261474609375 0.7664794921875 Q 6.264404296875 0.802734375 6.270263671875 0.83203125 M 6.33837890625 0.2841796875 Q 6.331787109375 0.2841796875 6.3193359375 0.2984619140625 Q 6.306884765625 0.312744140625 6.29443359375 0.35009765625 L 6.36474609375 0.35009765625 Q 6.361083984375 0.3193359375 6.3541259765625 0.3017578125 Q 6.34716796875 0.2841796875 6.33837890625 0.2841796875 M 6.281982421875 0.884765625 L 6.281982421875 0.885498046875 L 6.281982421875 0.884765625 M 6.665771484375 1.0283203125 Q 6.68115234375 1.049560546875 6.705322265625 1.0623779296875 Q 6.7294921875 1.0751953125 6.7646484375 1.0751953125 Q 6.800537109375 1.0751953125 6.829833984375 1.0579833984375 Q 6.859130859375 1.040771484375 6.88330078125 1.012939453125 Q 6.907470703125 0.985107421875 6.926513671875 0.95068359375 Q 6.945556640625 0.916259765625 6.9609375 0.8818359375 Q 6.964599609375 0.873779296875 6.97119140625 0.8697509765625 Q 6.977783203125 0.86572265625 6.98583984375 0.86572265625 Q 6.998291015625 0.86572265625 7.0059814453125 0.87451171875 Q 7.013671875 0.88330078125 7.013671875 0.8935546875 Q 7.013671875 0.897216796875 7.012939453125 0.8997802734375 Q 7.01220703125 0.90234375 7.0107421875 0.9052734375 Q 6.960205078125 1.0166015625 6.9005126953125 1.072998046875 Q 6.8408203125 1.12939453125 6.765380859375 1.130859375 Q 6.717041015625 1.130859375 6.681884765625 1.1121826171875 Q 6.646728515625 1.093505859375 6.6240234375 1.0638427734375 Q 6.601318359375 1.0341796875 6.59033203125 0.996826171875 Q 6.579345703125 0.95947265625 6.579345703125 0.922119140625 Q 6.579345703125 0.884765625 6.5885009765625 0.853271484375 Q 6.59765625 0.82177734375 6.6148681640625 0.79833984375 Q 6.632080078125 0.77490234375 6.6558837890625 0.76171875 Q 6.6796875 0.74853515625 6.708251953125 0.74853515625 Q 6.72509765625 0.74853515625 6.7415771484375 0.7554931640625 Q 6.758056640625 0.762451171875 6.771240234375 0.7752685546875 Q 6.784423828125 0.7880859375 6.79248046875 0.806396484375 Q 6.800537109375 0.82470703125 6.800537109375 0.84814453125 Q 6.800537109375 0.878173828125 6.790283203125 0.904541015625 Q 6.780029296875 0.930908203125 6.7620849609375 0.95361328125 Q 6.744140625 0.976318359375 6.71923828125 0.995361328125 Q 6.6943359375 1.014404296875 6.665771484375 1.0283203125 M 6.643798828125 0.980712890625 Q 6.66650390625 0.97119140625 6.6851806640625 0.95654296875 Q 6.703857421875 0.94189453125 6.717041015625 0.92431640625 Q 6.730224609375 0.90673828125 6.737548828125 0.8873291015625 Q 6.744873046875 0.867919921875 6.744873046875 0.84814453125 Q 6.744873046875 0.826171875 6.73388671875 0.8148193359375 Q 6.722900390625 0.803466796875 6.708251953125 0.803466796875 Q 6.6884765625 0.803466796875 6.674560546875 0.814453125 Q 6.66064453125 0.825439453125 6.65185546875 0.843017578125 Q 6.64306640625 0.860595703125 6.6390380859375 0.8822021484375 Q 6.635009765625 0.90380859375 6.635009765625 0.925048828125 Q 6.635009765625 0.938232421875 6.6375732421875 0.952880859375 Q 6.64013671875 0.967529296875 6.643798828125 0.980712890625" fill="#382d5e" fill-rule="nonzero"></path></g><g></g><g clip-path="url(#SvgjsClipPath1001)"><path d=" M 0.46443000284784075 -6.554245463054318 L 6.468675465902159 -6.554245463054318 L 6.468675465902159 -0.5499999999999998 L 0.46443000284784075 -0.5499999999999998 Z" fill="#382d5e" transform="matrix(1,0,0,1,0,0)" fill-rule="nonzero" mask="url(#maskedIcon-80e51111-dfc9-413c-b957-2b5afff496a7)"></path></g></g><defs><clipPath id="SvgjsClipPath1001"><path d=" M 0.46443000284784075 -6.554245463054318 h 6.0042454630543185 v 6.0042454630543185 h -6.0042454630543185 Z"></path></clipPath><mask id="maskedIcon-80e51111-dfc9-413c-b957-2b5afff496a7"><path d=" M 6.468675465902159 -3.552122731527159 C 6.468675465902159 -1.8940959791702285 5.12457948673193 -0.5499999999999998 3.466552734375 -0.5499999999999998 C 1.8085259820180692 -0.5499999999999998 0.46443000284784075 -1.8940959791702285 0.46443000284784075 -3.552122731527159 C 0.46443000284784075 -5.21014948388409 1.8085259820180692 -6.554245463054318 3.466552734375 -6.554245463054318 C 5.12457948673193 -6.554245463054318 6.468675465902159 -5.21014948388409 6.468675465902159 -3.552122731527159 Z" fill="#ffffff" transform="matrix(1,0,0,1,0,0)" fill-rule="nonzero"></path><path d=" M 2.6275394406096826 -4.371910841467392 C 2.6275394406096826 -4.397818261319447 2.6065373271820436 -4.418820374747085 2.580629907329989 -4.418820374747085 L 2.0124009018911133 -4.418820374747085 C 1.9864934820390592 -4.418820374747085 1.9654913686114204 -4.397818261319447 1.9654913686114204 -4.371910841467392 C 1.9654913686114204 -4.346003421615338 1.9864934820390592 -4.325001308187699 2.0124009018911133 -4.325001308187699 L 2.580629907329989 -4.325001308187699 C 2.606552169651022 -4.325001308187699 2.6275394406096826 -4.3459885791463595 2.6275394406096826 -4.371910841467392" fill="NA" transform="matrix(1,0,0,1,0,0)" fill-rule="nonzero"></path><path d=" M 2.647550559430731 -4.5788550946411615 L 2.95997347414092 -4.5788550946411615 C 2.985880893992975 -4.5788550946411615 3.0068830074206137 -4.5998572080688 3.0068830074206137 -4.625764627920854 C 3.0068830074206137 -4.651672047772909 2.985880893992975 -4.672674161200548 2.95997347414092 -4.672674161200548 L 2.647550559430731 -4.672674161200548 C 2.6216431395786763 -4.672674161200548 2.6006410261510378 -4.651672047772909 2.6006410261510378 -4.625764627920854 C 2.6006410261510378 -4.5998572080688 2.6216431395786763 -4.5788550946411615 2.647550559430731 -4.5788550946411615" fill="NA" transform="matrix(1,0,0,1,0,0)" fill-rule="nonzero"></path><path d=" M 4.76509569928297 -3.4088282963644154 L 2.6078537058345046 -3.4088282963644154 C 2.54876240006529 -3.410118393348743 2.5015240148489957 -3.45837527026827 2.50149452850347 -3.517480649873643 C 2.5014650421579447 -3.576586029479016 2.5486552553302655 -3.62489001470405 2.607745244485881 -3.626239069680359 L 4.76509569928297 -3.626239069680359 C 4.824186111297712 -3.6249191695594485 4.8714000534940265 -3.5766388344763933 4.8714000534940265 -3.5175336830223873 C 4.8714000534940265 -3.458428531568381 4.824186111297712 -3.410148196485326 4.765095699282972 -3.4088282963644154 M 4.010150482188623 -3.0710796567506233 L 3.817794280404723 -2.922216455764776 L 3.952611736743819 -3.208120570736502 C 3.968284401619925 -3.2415808967868727 3.9701282445465256 -3.2799219835253046 3.957655189454815 -3.31473807643347 L 4.201042455766103 -3.31473807643347 Z M 3.4953386909468542 -2.9282360606133837 L 3.4140469101534894 -2.9657636872371382 C 3.391935596678084 -3.0720880738158987 3.3578606883408506 -3.1755680944363918 3.3124728571675175 -3.2742277627225675 C 3.304124876366647 -3.288455318898825 3.2947163158460517 -3.3020333763745984 3.2843271371997016 -3.314846537782093 L 3.692412961395878 -3.314846537782093 Z M 3.6422495876574774 -4.786287423883735 C 3.642219636883084 -4.813542628583589 3.6642900659070436 -4.835661617407378 3.6915452706068934 -4.835691568181771 C 3.7188004753067427 -4.835721518956164 3.7409194641305317 -4.813651089932204 3.740949414904925 -4.786395885232356 C 3.7409638056793466 -4.773307471953207 3.7357782510346706 -4.76074941016047 3.7265335154700123 -4.751484334143524 C 3.7172887799053544 -4.742219258126578 3.7047421452520317 -4.737006115903391 3.6916537319555123 -4.736991740934323 L 3.691599501281201 -4.736991740934323 C 3.6643865972484635 -4.73699167521053 3.6423093962376902 -4.7590203549004 3.642249587657478 -4.786233193209424 Z M 4.76509569928297 -3.7200581362397456 L 4.754195333746303 -3.7200581362397456 C 4.730659221094987 -4.23872030535765 4.336347988174005 -4.664756482751027 3.82104812086343 -4.728314833044438 C 3.829725028753316 -4.746427878264575 3.8343346360698174 -4.766222074388375 3.8347142507899994 -4.786287423883735 C 3.8331965603012375 -4.864256695934781 3.7695564276999685 -4.926670113505121 3.691572385944045 -4.926670113505121 C 3.613588344188122 -4.926670113505121 3.5499482115868526 -4.864256695934781 3.5484305210980907 -4.786287423883736 C 3.5488101358182735 -4.766330535736999 3.5534197431347745 -4.746699031636133 3.561988189676037 -4.728694447764621 C 3.2302711479922914 -4.687491457153147 2.936899639133075 -4.493555675137473 2.7690272698891274 -4.204500749866914 C 2.7560436091887044 -4.182052644457532 2.7637160575622697 -4.153329522856495 2.786164162971651 -4.140345862156073 C 2.8086122683810326 -4.12736220145565 2.8373353899820692 -4.135034649829215 2.8503190506824923 -4.157482755238597 C 3.118164351108395 -4.6218057886960935 3.711719081450873 -4.781027048475492 4.175987884234058 -4.51318174804959 C 4.4617629825690495 -4.34832410091984 4.644216786000234 -4.049579488830602 4.6603762671869156 -3.7200581362397456 L 2.7222804286323696 -3.7200581362397456 C 2.7259700957370474 -3.79644106631643 2.7387130599662517 -3.8721160696032917 2.7602419006506187 -3.9454950493538323 L 2.95997347414092 -3.9454950493538323 C 2.9850047576035315 -3.9466990190192788 3.004680955264948 -3.9673443612709582 3.004680955264948 -3.992404582633526 C 3.004680955264948 -4.017464803996093 2.9850047576035315 -4.038110146247773 2.95997347414092 -4.0393141159132195 L 2.202425184679606 -4.0393141159132195 C 2.176517764827551 -4.0393141159132195 2.1555156513999125 -4.0183120024855805 2.1555156513999125 -3.992404582633526 C 2.1555156513999125 -3.9664971627814714 2.176517764827551 -3.9454950493538323 2.202425184679606 -3.9454950493538323 L 2.6626266868894075 -3.9454950493538323 C 2.6431652987424994 -3.8717965042282425 2.6317105976409767 -3.796213659023434 2.6284613620729838 -3.7200581362397456 L 2.607853705834505 -3.7200581362397456 C 2.5347088178227284 -3.7212551035327333 2.4666020632907877 -3.6829180869150138 2.429679718392767 -3.6197647194657048 C 2.3927573734947467 -3.5566113520163958 2.3927573734947476 -3.478456014028377 2.4296797183927676 -3.4153026465790686 C 2.4666020632907886 -3.35214927912976 2.5347088178227297 -3.3138122625120405 2.6078537058345064 -3.315009229805029 L 2.9691384580996116 -3.315009229805029 C 2.956177326939095 -3.2538370291813363 2.989366499617907 -3.1723283256907244 3.0229352870169017 -3.091795774337725 C 3.0696814058880646 -3.0013702856233313 3.079762483642152 -2.8964027631125657 3.051081006984717 -2.7987332103568425 C 3.0471782769981233 -2.78967137157788 3.042666825811938 -2.78088400681764 3.037577569081084 -2.772431333315627 C 3.0067700577700758 -2.7210938262521798 2.9847566431044634 -2.664969699935688 2.9724465292326303 -2.606377008572944 C 2.9523735064460825 -2.4718324286639115 2.967469233059941 -2.3343828485919342 3.016264914076552 -2.207401937661147 C 3.0208811788715066 -2.195801407127826 3.029936392961705 -2.1865230073395097 3.0414211094241907 -2.1816257124649923 C 3.0529058258866764 -2.176728417590475 3.065870132847308 -2.1766172875689946 3.0774371147002446 -2.1813169833171786 C 3.0889806250805285 -2.185925128938208 3.0982202009244704 -2.1949310199655994 3.1031224810607174 -2.2063527224407142 C 3.1080247611969654 -2.217774424915831 3.1081880094780816 -2.230675943623794 3.103576299718525 -2.2422180305693127 L 3.103576299718525 -2.2422722612436248 C 3.061964915923086 -2.352252800218091 3.0485417028325084 -2.4708990892575784 3.0645302142140403 -2.58739627256382 C 3.0749356498790785 -2.636483715737684 3.093446734099649 -2.68349453853547 3.1193031952689423 -2.726497952173546 C 3.12803433383314 -2.7405436968202985 3.135247013516607 -2.755511362930351 3.1407785422964087 -2.7711297971321445 C 3.1764191729419915 -2.889984988847923 3.1652230906022587 -3.0179734795114803 3.1094874432185096 -3.1288353248926737 C 3.087957865516731 -3.1803544654888687 3.0432717898838204 -3.287568508603266 3.064638675562664 -3.301397330552771 C 3.084185394646565 -3.3141504687179273 3.108176852456499 -3.3181424899764655 3.1308000982230406 -3.312406157438063 C 3.17438846051409 -3.2984426351702454 3.2107238080143015 -3.267874184645939 3.2319403058145184 -3.2273182294428735 C 3.274902653539366 -3.1296652367763396 3.30714167794929 -3.027638634427731 3.3280912913693106 -2.923029915879454 C 3.3312454491202828 -2.908667489350512 3.3409373304971863 -2.896607819148609 3.354284707061904 -2.89043728061807 L 3.452984534309351 -2.8448835141961712 L 3.4073765372131404 -2.755565593604663 C 3.3497835610940254 -2.7328971717423367 3.1815057787045586 -2.654696539384744 3.1815057787045586 -2.514944091683276 C 3.1815057787045586 -2.4890366718312213 3.2025078921321977 -2.468034558403583 3.2284153119842522 -2.4680345584035823 C 3.2543227318363073 -2.4680345584035823 3.2753248452639454 -2.4890366718312213 3.2753248452639454 -2.514944091683276 C 3.2753248452639454 -2.59531395101334 3.408840765419558 -2.6578419184948276 3.455587606676316 -2.673460352696621 C 3.4672956030063546 -2.6773318442467327 3.4770140107967578 -2.685647996804853 3.4826487131578965 -2.696616850627753 L 3.7855270291892116 -3.29011735029592 C 3.7933904769644204 -3.3054104004518434 3.8091173725148377 -3.3150634604793408 3.8263084962716736 -3.3151176911536524 C 3.842068803016015 -3.3151656213487954 3.856734252556171 -3.3070637296447924 3.865083428404599 -3.293696574800498 C 3.873801207526106 -3.2801449988901785 3.8748486800729283 -3.2630362806254225 3.8678491927945 -3.2485224230987817 L 3.655481872189553 -2.798190903613725 C 3.6444317841596487 -2.7747379099884313 3.6544511976201925 -2.746766036574372 3.6778791406803197 -2.735662936132238 C 3.6934278487078376 -2.728401073636757 3.7117129547606633 -2.7302983879478253 3.7254394420517545 -2.7405979274946106 C 3.7334318199306726 -2.7415064264773665 3.74103472181573 -2.7445400966876603 3.7474570958223388 -2.7493832967331193 L 4.072244604275615 -3.0005797801453036 C 4.07528874714187 -3.002955162661195 4.078037879376696 -3.0056860887222814 4.080433436096694 -3.0087143812920716 L 4.3085818829263705 -3.2999873330206646 C 4.316643997592201 -3.3103832775771025 4.329473153287218 -3.315919851754092 4.34256788406873 -3.314654394577728 C 4.355662614850242 -3.313388937401363 4.367194170964775 -3.3054981767889964 4.3731163853573936 -3.2937508054748097 C 4.3800890038129605 -3.280695808457991 4.379081061861529 -3.2648207227229245 4.370513312990429 -3.2527524156951007 L 4.012645093206964 -2.7414113876092867 L 3.6766860658454603 -2.4250838643486494 C 3.62273793140433 -2.3853835829583767 3.5927314130275048 -2.3209349777525654 3.597075435955761 -2.254094548243594 C 3.5972387379660793 -2.2460776685464507 3.59696718591695 -2.2380578313621706 3.5962619758410845 -2.2300703595234737 C 3.5933746368925985 -2.204358459204748 3.6118744746083844 -2.181172967054386 3.637585749666664 -2.17828006555572 L 3.6376942110152872 -2.17828006555572 C 3.6394295925932645 -2.1780089121841604 3.6411649741712417 -2.177791989486913 3.6429545864235306 -2.1776835281382896 C 3.6668160831207155 -2.1777377588126017 3.6868272019417643 -2.195688112009802 3.6894845049830414 -2.2194411473583635 C 3.690623349143589 -2.2308295889638385 3.6911114252123953 -2.2422722612436248 3.690894502515148 -2.253714933523411 C 3.6869846284943004 -2.293922347764747 3.705699191888415 -2.3329806441341603 3.7394851866985066 -2.355126294486448 L 4.080487666771006 -2.6764972704580816 C 4.082824753740248 -2.678705311880874 4.084915792048768 -2.6811600090256604 4.0867241943168615 -2.683818411490172 L 4.4473581784902265 -3.199172509475058 C 4.470730184525868 -3.232937140448697 4.477026395202069 -3.275667156216159 4.4643866102241265 -3.31473807643347 L 4.76509569928297 -3.31473807643347 C 4.875654896876963 -3.31654730394145 4.964333090276744 -3.4066885296471963 4.964333090276744 -3.5172625296508286 C 4.964333090276744 -3.62783652965446 4.875654896876965 -3.7179777553602062 4.765095699282972 -3.719786982868187 Z" fill="NA" transform="matrix(1,0,0,1,0,0)" fill-rule="nonzero"></path></mask></defs></svg>